<?xml version="1.0"?><svg id="Icons" viewBox="0 0 60 60" xmlns="http://www.w3.org/2000/svg"><defs><style>.cls-1{fill:#aebdcc;}.cls-2{fill:#e3ebf4;}.cls-3{fill:#4c99a5;}.cls-4{fill:#8feeff;}.cls-5{fill:#276d82;}.cls-6{fill:#c49537;}.cls-7{fill:#397a91;}.cls-8{fill:#373737;}</style></defs><path class="cls-1" d="M12,59H8a1,1,0,0,1-1-1V57a5,5,0,0,1,5-5h.77Z"/><path class="cls-1" d="M47.23,52H48a5,5,0,0,1,5,5v1a1,1,0,0,1-1,1H48Z"/><path class="cls-1" d="M12,27V38H11a4,4,0,0,1-4-4V31a4,4,0,0,1,4-4Z"/><path class="cls-1" d="M48,27V38h1a4,4,0,0,0,4-4V31a4,4,0,0,0-4-4Z"/><rect class="cls-1" height="6" width="10" x="25" y="46"/><path class="cls-2" d="M46.59,20.28A7.958,7.958,0,0,1,49,26V39a8,8,0,0,1-8,8H19a8,8,0,0,1-8-8V26a7.958,7.958,0,0,1,2.41-5.72Z"/><path class="cls-3" d="M41.24,22.16A5,5,0,0,1,45,27V38a5,5,0,0,1-5,5H20a5,5,0,0,1-5-5V27a5,5,0,0,1,3.76-4.84Z"/><circle class="cls-4" cx="22.5" cy="29.5" r="3.5"/><circle class="cls-4" cx="37.5" cy="29.5" r="3.5"/><path class="cls-4" d="M33.317,35a.664.664,0,0,1,.671.768,4.076,4.076,0,0,1-7.976,0A.664.664,0,0,1,26.683,35Z"/><path class="cls-2" d="M15,51H45a3,3,0,0,1,3,3v5a0,0,0,0,1,0,0H12a0,0,0,0,1,0,0V54A3,3,0,0,1,15,51Z"/><path class="cls-3" d="M44,59V56a1,1,0,0,0-1-1H17a1,1,0,0,0-1,1v3Z"/><path class="cls-5" d="M12,10.42v6.813a4,4,0,0,0,2.356,3.65C16.654,21.92,21.167,23,30,23s13.346-1.08,15.644-2.117A4,4,0,0,0,48,17.233V10.42Z"/><circle class="cls-6" cx="55" cy="20" r="3"/><path class="cls-7" d="M58.436,7.711,30.747,14.905a2.977,2.977,0,0,1-1.494,0L1.564,7.711a.77.77,0,0,1,.05-1.5L29.459,1.05a2.937,2.937,0,0,1,1.082,0L58.386,6.215A.77.77,0,0,1,58.436,7.711Z"/><path class="cls-8" d="M27,29.5A4.5,4.5,0,1,0,22.5,34,4.505,4.505,0,0,0,27,29.5ZM22.5,32A2.5,2.5,0,1,1,25,29.5,2.5,2.5,0,0,1,22.5,32Z"/><path class="cls-8" d="M37.5,34A4.5,4.5,0,1,0,33,29.5,4.505,4.505,0,0,0,37.5,34Zm0-7A2.5,2.5,0,1,1,35,29.5,2.5,2.5,0,0,1,37.5,27Z"/><path class="cls-8" d="M33.317,34H26.683a1.692,1.692,0,0,0-1.31.618,1.62,1.62,0,0,0-.343,1.343,5.077,5.077,0,0,0,9.94,0,1.62,1.62,0,0,0-.343-1.343A1.692,1.692,0,0,0,33.317,34ZM30,38a3.066,3.066,0,0,1-2.89-2h5.78A3.066,3.066,0,0,1,30,38Z"/><path class="cls-8" d="M58.687,8.679a1.77,1.77,0,0,0-.119-3.448L30.724.066a4.049,4.049,0,0,0-1.448,0L1.426,5.232a1.771,1.771,0,0,0-.113,3.447L11,11.2v6.037a5,5,0,0,0,1.053,3.051A8.9,8.9,0,0,0,10,26v.1A5.009,5.009,0,0,0,6,31v3a5.009,5.009,0,0,0,4,4.9V39a9.01,9.01,0,0,0,9,9h5v2H19a1,1,0,0,0,0,2H45a2,2,0,0,1,2,2v4H45V56a2,2,0,0,0-2-2H17a2,2,0,0,0-2,2v2H13V54a2,2,0,0,1,2-2,1,1,0,0,0,0-2,3.962,3.962,0,0,0-2.618,1H12a6.006,6.006,0,0,0-6,6v1a2,2,0,0,0,2,2H52a2,2,0,0,0,2-2V57a6.006,6.006,0,0,0-6-6h-.382A3.962,3.962,0,0,0,45,50H36V48h5a9.01,9.01,0,0,0,9-9v-.1A5.009,5.009,0,0,0,54,34V31a5.009,5.009,0,0,0-4-4.9V26a8.9,8.9,0,0,0-2.053-5.717A5,5,0,0,0,49,17.232V11.2l5-1.3v6.246a4,4,0,1,0,2,0V9.377ZM8,57a4,4,0,0,1,3.108-3.892A3.974,3.974,0,0,0,11,54v4H8Zm9-1H43v2H17Zm35,1v1H49V54a3.974,3.974,0,0,0-.108-.892A4,4,0,0,1,52,57Zm5-37a2,2,0,1,1-2-2A2,2,0,0,1,57,20ZM29.642,2.033a1.916,1.916,0,0,1,.716,0L57.17,7.007l-26.676,6.93a1.988,1.988,0,0,1-.99,0L2.83,7.007ZM8,34V31a3,3,0,0,1,2-2.816v8.632A3,3,0,0,1,8,34ZM34,50H26V48h8ZM52,31v3a3,3,0,0,1-2,2.816V28.184A3,3,0,0,1,52,31Zm-4,8a7.009,7.009,0,0,1-7,7H19a7.009,7.009,0,0,1-7-7V26a6.921,6.921,0,0,1,1.568-4.41c.125.07.245.145.376.2a16.5,16.5,0,0,0,2.066.736A5.98,5.98,0,0,0,14,27V38a6.006,6.006,0,0,0,6,6H40a6.006,6.006,0,0,0,6-6V27a5.98,5.98,0,0,0-2.01-4.47,16.5,16.5,0,0,0,2.066-.736c.131-.059.251-.134.376-.2A6.921,6.921,0,0,1,48,26ZM41.169,23.19A3.983,3.983,0,0,1,44,27V38a4,4,0,0,1-4,4H20a4,4,0,0,1-4-4V27a3.983,3.983,0,0,1,2.831-3.81A64.652,64.652,0,0,0,30,24,64.652,64.652,0,0,0,41.169,23.19ZM47,17.232a3.01,3.01,0,0,1-1.767,2.74C43.183,20.9,38.875,22,30,22s-13.183-1.1-15.233-2.028A3.01,3.01,0,0,1,13,17.232V11.715l16,4.157a3.962,3.962,0,0,0,2,0l16-4.157Z"/></svg>